<svg width="332" height="316" viewBox="0 0 332 316" fill="none" xmlns="http://www.w3.org/2000/svg">
<path d="M96.1303 14.2991C102.166 -4.76635 129.148 -4.76635 135.184 14.2991L151.648 66.3108C153.66 72.6655 158.639 77.6438 164.994 79.6552L217.013 96.1175C236.081 102.152 236.081 129.131 217.013 135.165L164.994 151.628C158.639 153.639 153.66 158.617 151.648 164.972L135.184 216.984C129.148 236.049 102.166 236.049 96.1303 216.984L79.6659 164.972C77.6542 158.617 72.6753 153.639 66.3197 151.628L14.301 135.165C-4.76699 129.131 -4.76699 102.152 14.301 96.1175L66.3197 79.6552C72.6753 77.6438 77.6542 72.6655 79.6659 66.3108L96.1303 14.2991Z" fill="#5155D1"/>
<path d="M245.917 184.586C250.525 170.03 271.126 170.03 275.733 184.586L284.186 211.289C285.722 216.141 289.523 219.941 294.376 221.477L321.082 229.929C335.64 234.536 335.64 255.134 321.082 259.741L294.376 268.192C289.523 269.728 285.722 273.529 284.186 278.381L275.733 305.083C271.126 319.639 250.525 319.639 245.917 305.083L237.464 278.381C235.929 273.529 232.127 269.728 227.275 268.192L200.569 259.741C186.011 255.134 186.011 234.536 200.569 229.929L227.275 221.477C232.127 219.941 235.929 216.141 237.464 211.289L245.917 184.586Z" fill="#5155D1"/>
</svg>
